<?xml version="1.0" encoding="UTF-8"?>
<svg xmlns="http://www.w3.org/2000/svg" xmlns:xlink="http://www.w3.org/1999/xlink" width="40px" height="512px" viewBox="0 0 40 40" version="1.1">
<g id="surface1">
<path style=" stroke:none;fill-rule:nonzero;fill:rgb(100%,100%,100%);fill-opacity:1;" d="M 40 20.121094 C 40 30.101562 32.675781 38.378906 23.117188 39.878906 L 23.117188 25.941406 L 27.765625 25.941406 L 28.648438 20.175781 L 23.117188 20.175781 L 23.117188 16.433594 C 23.117188 14.855469 23.890625 13.316406 26.367188 13.316406 L 28.882812 13.316406 L 28.882812 8.410156 C 28.882812 8.410156 26.597656 8.019531 24.417969 8.019531 C 19.859375 8.019531 16.882812 10.78125 16.882812 15.777344 L 16.882812 20.171875 L 11.816406 20.171875 L 11.816406 25.941406 L 16.882812 25.941406 L 16.882812 39.878906 C 7.324219 38.375 0 30.101562 0 20.121094 C 0 9.078125 8.953125 0.121094 20 0.121094 C 31.046875 0.121094 40 9.074219 40 20.121094 Z M 40 20.121094 "/>
</g>
</svg>
