<?xml version="1.0" encoding="UTF-8"?>
<svg xmlns="http://www.w3.org/2000/svg" xmlns:xlink="http://www.w3.org/1999/xlink" width="40px" height="512px" viewBox="0 0 40 40" version="1.1">
<g id="surface1">
<path style=" stroke:none;fill-rule:nonzero;fill:rgb(100%,100%,100%);fill-opacity:1;" d="M 20 3.601562 C 25.339844 3.601562 25.972656 3.625 28.082031 3.71875 C 30.261719 3.820312 32.507812 4.316406 34.09375 5.90625 C 35.699219 7.507812 36.179688 9.730469 36.28125 11.917969 C 36.375 14.027344 36.398438 14.660156 36.398438 20 C 36.398438 25.339844 36.375 25.972656 36.28125 28.082031 C 36.183594 30.25 35.671875 32.515625 34.09375 34.09375 C 32.492188 35.699219 30.269531 36.179688 28.082031 36.28125 C 25.972656 36.375 25.339844 36.398438 20 36.398438 C 14.660156 36.398438 14.027344 36.375 11.917969 36.28125 C 9.765625 36.183594 7.46875 35.660156 5.90625 34.09375 C 4.308594 32.5 3.820312 30.253906 3.71875 28.082031 C 3.625 25.972656 3.601562 25.339844 3.601562 20 C 3.601562 14.660156 3.625 14.027344 3.71875 11.917969 C 3.816406 9.757812 4.332031 7.476562 5.90625 5.90625 C 7.503906 4.304688 9.738281 3.820312 11.917969 3.71875 C 14.027344 3.625 14.660156 3.601562 20 3.601562 M 20 0 C 14.566406 0 13.886719 0.0234375 11.753906 0.121094 C 8.660156 0.261719 5.589844 1.121094 3.355469 3.355469 C 1.113281 5.601562 0.261719 8.664062 0.121094 11.753906 C 0.0234375 13.886719 0 14.566406 0 20 C 0 25.433594 0.0234375 26.113281 0.121094 28.246094 C 0.261719 31.335938 1.125 34.414062 3.355469 36.644531 C 5.597656 38.886719 8.667969 39.738281 11.753906 39.878906 C 13.886719 39.976562 14.566406 40 20 40 C 25.433594 40 26.113281 39.976562 28.246094 39.878906 C 31.335938 39.738281 34.410156 38.875 36.644531 36.644531 C 38.886719 34.398438 39.738281 31.335938 39.878906 28.246094 C 39.976562 26.113281 40 25.433594 40 20 C 40 14.566406 39.976562 13.886719 39.878906 11.753906 C 39.738281 8.660156 38.875 5.589844 36.644531 3.355469 C 34.40625 1.117188 31.328125 0.261719 28.246094 0.121094 C 26.113281 0.0234375 25.433594 0 20 0 Z M 20 0 "/>
<path style=" stroke:none;fill-rule:nonzero;fill:rgb(100%,100%,100%);fill-opacity:1;" d="M 20 9.730469 C 14.328125 9.730469 9.730469 14.328125 9.730469 20 C 9.730469 25.671875 14.328125 30.269531 20 30.269531 C 25.671875 30.269531 30.269531 25.671875 30.269531 20 C 30.269531 14.328125 25.671875 9.730469 20 9.730469 Z M 20 26.667969 C 16.316406 26.667969 13.332031 23.683594 13.332031 20 C 13.332031 16.316406 16.316406 13.332031 20 13.332031 C 23.683594 13.332031 26.667969 16.316406 26.667969 20 C 26.667969 23.683594 23.683594 26.667969 20 26.667969 Z M 20 26.667969 "/>
<path style=" stroke:none;fill-rule:nonzero;fill:rgb(100%,100%,100%);fill-opacity:1;" d="M 33.078125 9.324219 C 33.078125 10.648438 32.003906 11.722656 30.675781 11.722656 C 29.351562 11.722656 28.277344 10.648438 28.277344 9.324219 C 28.277344 7.996094 29.351562 6.921875 30.675781 6.921875 C 32.003906 6.921875 33.078125 7.996094 33.078125 9.324219 Z M 33.078125 9.324219 "/>
</g>
</svg>
